<?xml version="1.0" encoding="UTF-8"?>
<svg id="Layer_2" data-name="Layer 2" xmlns="http://www.w3.org/2000/svg" xmlns:xlink="http://www.w3.org/1999/xlink" viewBox="0 0 125.1 170.95">
  <defs>
    <style>
      .cls-1 {
        stroke: #000;
        stroke-miterlimit: 10;
      }

      .cls-1, .cls-2, .cls-3, .cls-4 {
        fill: none;
      }

      .cls-5 {
        fill: url(#Gold-2);
      }

      .cls-6 {
        fill: url(#Gold);
      }

      .cls-7 {
        fill: url(#Gold-4);
      }

      .cls-2 {
        stroke: #231f20;
      }

      .cls-3 {
        stroke: url(#Gold-3);
      }

      .cls-4 {
        stroke: url(#Gold-5);
      }

      .cls-8 {
        fill: #231f20;
      }
    </style>
    <linearGradient id="Gold" x1="2.17" y1="42.32" x2="125.1" y2="42.32" gradientUnits="userSpaceOnUse">
      <stop offset="0" stop-color="#fbc926"/>
      <stop offset=".25" stop-color="#fffbcc"/>
      <stop offset=".3" stop-color="#f8efba"/>
      <stop offset=".41" stop-color="#e7d18d"/>
      <stop offset=".55" stop-color="#cca246"/>
      <stop offset=".6" stop-color="#c3922e"/>
      <stop offset=".87" stop-color="#eed688"/>
      <stop offset="1" stop-color="#fffbcc"/>
    </linearGradient>
    <linearGradient id="Gold-2" data-name="Gold" x1="30.69" y1="104.67" x2="91.97" y2="104.67" gradientTransform="translate(-13.78 11.17) rotate(-9.28)" xlink:href="#Gold"/>
    <linearGradient id="Gold-3" data-name="Gold" x1="37.98" y1="150.34" x2="84.46" y2="150.34" xlink:href="#Gold"/>
    <linearGradient id="Gold-4" data-name="Gold" x1="40.84" y1="149.73" x2="86.32" y2="149.73" xlink:href="#Gold"/>
    <linearGradient id="Gold-5" data-name="Gold" x1="40.34" y1="149.73" x2="86.82" y2="149.73" xlink:href="#Gold"/>
  </defs>
  <g id="Layer_1-2" data-name="Layer 1">
    <path d="m12.17,80.46C6.12,71.44,2.24,61.01.73,50.26-.88,38.83-.04,26.92,5.29,16.51c2.23-4.36,5.33-8.34,9.34-11.15,4.13-2.9,8.99-4.35,14.03-3.85,5.33.53,10.35,2.73,15.1,5.08,4.25,2.1,8.53,4.38,13.23,5,10.09,1.33,18.97-4.78,27.82-8.52,4.16-1.76,8.69-2.99,13.15-2.38,4.2.57,8.05,2.76,11.18,5.62,9.51,8.69,13.77,22.21,13.79,34.82,0,7.06-1.21,14.08-3.19,20.84-1.82,6.2-4.06,12.43-7.71,17.81-.89,1.31-1.87,2.58-3.08,3.61-.54.46-1.15.88-1.85,1.02-.7.15-1.5-.02-1.95-.57-.42-.52-.46-1.28-.26-1.92.2-.64.6-1.2.98-1.76,2.55-3.7,4.6-7.71,6.33-11.86,5.24-12.6,7.39-26.88,3.81-40.22-.04-.13-.07-.27-.11-.4-1.55-5.59-4.17-10.94-8.02-15.32-3.18-3.62-7.79-6.26-12.6-5.97-3.17.19-6.08,1.61-8.99,2.75-2.76,1.08-5.4,2.4-8.07,3.67-5.4,2.56-11.07,5-17.16,4.98-4.85-.01-9.56-1.6-13.95-3.65-4.05-1.9-7.91-4.21-12.13-5.67-5.83-2.02-11.74-1.78-16.98,1.63-4.85,3.16-7.08,7.56-8.41,10.27-2.17,4.41-3.03,9.26-3.61,14.1-.54,4.52-.59,9.1-.14,13.63,1.12,11.4,5.28,22.62,11.82,32.02.76,1.09,1.6,2.4,1.17,3.66-.31.92-1.35,1.54-2.31,1.38-1.01-.17-1.73-1.04-2.35-1.86-.69-.92-1.36-1.86-2-2.82Z"/>
    <path class="cls-6" d="m14.34,79.94c-6.05-9.02-9.93-19.45-11.44-30.2-1.61-11.43-.77-23.34,4.56-33.75,2.23-4.36,5.33-8.34,9.34-11.15C20.93,1.94,25.79.48,30.83.99c5.33.53,10.35,2.73,15.1,5.08,4.25,2.1,8.53,4.38,13.23,5,10.09,1.33,18.97-4.78,27.82-8.52,4.16-1.76,8.69-2.99,13.15-2.38,4.2.57,8.05,2.76,11.18,5.62,9.51,8.69,13.77,22.21,13.79,34.82,0,7.06-1.21,14.08-3.19,20.84-1.82,6.2-4.06,12.43-7.71,17.81-.89,1.31-1.87,2.58-3.08,3.61-.54.46-1.15.88-1.85,1.02-.7.15-1.5-.02-1.95-.57-.42-.52-.46-1.28-.26-1.92.2-.64.6-1.2.98-1.76,2.55-3.7,4.6-7.71,6.33-11.86,5.24-12.6,7.39-26.88,3.81-40.22-.04-.13-.07-.27-.11-.4-1.55-5.59-4.17-10.94-8.02-15.32-3.18-3.62-7.79-6.26-12.6-5.97-3.17.19-6.08,1.61-8.99,2.75-2.76,1.08-5.4,2.4-8.07,3.67-5.4,2.56-11.07,5-17.16,4.98-4.85-.01-9.56-1.6-13.95-3.65-4.05-1.9-7.91-4.21-12.13-5.67-5.83-2.02-11.74-1.78-16.98,1.63-4.85,3.16-7.08,7.56-8.41,10.27-2.17,4.41-3.03,9.26-3.61,14.1-.54,4.52-.59,9.1-.14,13.63,1.12,11.4,5.28,22.62,11.82,32.02.76,1.09,1.6,2.4,1.17,3.66-.31.92-1.35,1.54-2.31,1.38-1.01-.17-1.73-1.04-2.35-1.86-.69-.92-1.36-1.86-2-2.82Z"/>
    <path d="m92.16,105.41c.01,1.41-1.02,2.59-2.37,2.81-.14.02-.29.03-.44.03l-56.32.37c-1.56.01-2.83-1.25-2.84-2.81-.01-1.41,1.01-2.58,2.35-2.8.15-.02.3-.04.45-.04l56.32-.37c1.56-.01,2.83,1.24,2.85,2.8Z"/>
    <path class="cls-5" d="m94.6,104.38c.01,1.41-1.02,2.59-2.37,2.81-.14.02-.29.03-.44.03l-56.32.37c-1.56.01-2.83-1.25-2.84-2.81-.01-1.41,1.01-2.58,2.35-2.8.15-.02.3-.04.45-.04l56.32-.37c1.56-.01,2.83,1.24,2.85,2.8Z"/>
    <g>
      <g>
        <path class="cls-1" d="m80.98,130.26h-11.56c-8.94,0-17.87.01-26.8-.02-.39,0-.78,0-1.16.03-.28.02-.57.07-.84.14-1.84.49-2.7,2.67-1.75,4.32.15.26.3.52.45.77.36.62.72,1.25,1.08,1.87.53.93,1.06,1.84,1.59,2.76.66,1.14,1.32,2.28,1.98,3.43.75,1.29,1.49,2.58,2.24,3.88.8,1.37,1.59,2.74,2.37,4.11.8,1.38,1.59,2.75,2.39,4.13.2.41.46.81.7,1.21,1.97,3.42,3.97,6.82,5.87,10.29.44.8.88,1.61,1.53,2.26.83.83,1.96,1.27,3.09.84.98-.37,1.63-1.29,2.15-2.16,1.2-2.05,2.34-4.11,3.53-6.17.78-1.34,1.55-2.7,2.33-4.04.86-1.48,1.71-2.96,2.56-4.43.88-1.51,1.75-3.03,2.62-4.54.84-1.45,1.68-2.9,2.51-4.35.75-1.3,1.5-2.58,2.25-3.88.6-1.04,1.2-2.09,1.81-3.13.4-.69.8-1.39,1.2-2.08.15-.25.3-.51.44-.76,1.15-1.99-.28-4.47-2.58-4.47Zm-19.76,32.45l-15.65-27.09h31.29l-15.64,27.09Z"/>
        <path d="m80.98,130.26h-11.56c-8.94,0-17.87.01-26.8-.02-.39,0-.78,0-1.16.03-.28.02-.57.07-.84.14-1.84.49-2.7,2.67-1.75,4.32.15.26.3.52.45.77.36.62.72,1.25,1.08,1.87.53.93,1.06,1.84,1.59,2.76.66,1.14,1.32,2.28,1.98,3.43.75,1.29,1.49,2.58,2.24,3.88.8,1.37,1.59,2.74,2.37,4.11.8,1.38,1.59,2.75,2.39,4.13.2.41.46.81.7,1.21,1.97,3.42,3.97,6.82,5.87,10.29.44.8.88,1.61,1.53,2.26.83.83,1.96,1.27,3.09.84.98-.37,1.63-1.29,2.15-2.16,1.2-2.05,2.34-4.11,3.53-6.17.78-1.34,1.55-2.7,2.33-4.04.86-1.48,1.71-2.96,2.56-4.43.88-1.51,1.75-3.03,2.62-4.54.84-1.45,1.68-2.9,2.51-4.35.75-1.3,1.5-2.58,2.25-3.88.6-1.04,1.2-2.09,1.81-3.13.4-.69.8-1.39,1.2-2.08.15-.25.3-.51.44-.76,1.15-1.99-.28-4.47-2.58-4.47Zm-19.76,32.45l-15.65-27.09h31.29l-15.64,27.09Z"/>
        <path class="cls-3" d="m80.98,130.26h-11.56c-8.94,0-17.87.01-26.8-.02-.39,0-.78,0-1.16.03-.28.02-.57.07-.84.14-1.84.49-2.7,2.67-1.75,4.32.15.26.3.52.45.77.36.62.72,1.25,1.08,1.87.53.93,1.06,1.84,1.59,2.76.66,1.14,1.32,2.28,1.98,3.43.75,1.29,1.49,2.58,2.24,3.88.8,1.37,1.59,2.74,2.37,4.11.8,1.38,1.59,2.75,2.39,4.13.2.41.46.81.7,1.21,1.97,3.42,3.97,6.82,5.87,10.29.44.8.88,1.61,1.53,2.26.83.83,1.96,1.27,3.09.84.98-.37,1.63-1.29,2.15-2.16,1.2-2.05,2.34-4.11,3.53-6.17.78-1.34,1.55-2.7,2.33-4.04.86-1.48,1.71-2.96,2.56-4.43.88-1.51,1.75-3.03,2.62-4.54.84-1.45,1.68-2.9,2.51-4.35.75-1.3,1.5-2.58,2.25-3.88.6-1.04,1.2-2.09,1.81-3.13.4-.69.8-1.39,1.2-2.08.15-.25.3-.51.44-.76,1.15-1.99-.28-4.47-2.58-4.47Zm-19.76,32.45l-15.65-27.09h31.29l-15.64,27.09Z"/>
        <path class="cls-8" d="m80.98,130.26h-11.56c-8.94,0-17.87.01-26.8-.02-.39,0-.78,0-1.16.03-.28.02-.57.07-.84.14-1.84.49-2.7,2.67-1.75,4.32.15.26.3.52.45.77.36.62.72,1.25,1.08,1.87.53.93,1.06,1.84,1.59,2.76.66,1.14,1.32,2.28,1.98,3.43.75,1.29,1.49,2.58,2.24,3.88.8,1.37,1.59,2.74,2.37,4.11.8,1.38,1.59,2.75,2.39,4.13.2.41.46.81.7,1.21,1.97,3.42,3.97,6.82,5.87,10.29.44.8.88,1.61,1.53,2.26.83.83,1.96,1.27,3.09.84.98-.37,1.63-1.29,2.15-2.16,1.2-2.05,2.34-4.11,3.53-6.17.78-1.34,1.55-2.7,2.33-4.04.86-1.48,1.71-2.96,2.56-4.43.88-1.51,1.75-3.03,2.62-4.54.84-1.45,1.68-2.9,2.51-4.35.75-1.3,1.5-2.58,2.25-3.88.6-1.04,1.2-2.09,1.81-3.13.4-.69.8-1.39,1.2-2.08.15-.25.3-.51.44-.76,1.15-1.99-.28-4.47-2.58-4.47Zm-19.76,32.45l-15.65-27.09h31.29l-15.64,27.09Z"/>
        <path class="cls-2" d="m80.98,130.26h-11.56c-8.94,0-17.87.01-26.8-.02-.39,0-.78,0-1.16.03-.28.02-.57.07-.84.14-1.84.49-2.7,2.67-1.75,4.32.15.26.3.52.45.77.36.62.72,1.25,1.08,1.87.53.93,1.06,1.84,1.59,2.76.66,1.14,1.32,2.28,1.98,3.43.75,1.29,1.49,2.58,2.24,3.88.8,1.37,1.59,2.74,2.37,4.11.8,1.38,1.59,2.75,2.39,4.13.2.41.46.81.7,1.21,1.97,3.42,3.97,6.82,5.87,10.29.44.8.88,1.61,1.53,2.26.83.83,1.96,1.27,3.09.84.98-.37,1.63-1.29,2.15-2.16,1.2-2.05,2.34-4.11,3.53-6.17.78-1.34,1.55-2.7,2.33-4.04.86-1.48,1.71-2.96,2.56-4.43.88-1.51,1.75-3.03,2.62-4.54.84-1.45,1.68-2.9,2.51-4.35.75-1.3,1.5-2.58,2.25-3.88.6-1.04,1.2-2.09,1.81-3.13.4-.69.8-1.39,1.2-2.08.15-.25.3-.51.44-.76,1.15-1.99-.28-4.47-2.58-4.47Zm-19.76,32.45l-15.65-27.09h31.29l-15.64,27.09Z"/>
      </g>
      <g>
        <path class="cls-7" d="m83.33,129.64h-11.56c-8.94,0-17.87.01-26.8-.02-.39,0-.78,0-1.16.03-.28.02-.57.07-.84.14-1.84.49-2.7,2.67-1.75,4.32.15.26.3.52.45.77.36.62.72,1.25,1.08,1.87.53.93,1.06,1.84,1.59,2.76.66,1.14,1.32,2.28,1.98,3.43.75,1.29,1.49,2.58,2.24,3.88.8,1.37,1.59,2.74,2.37,4.11.8,1.38,1.59,2.75,2.39,4.13.2.41.46.81.7,1.21,1.97,3.42,3.97,6.82,5.87,10.29.44.8.88,1.61,1.53,2.26.83.83,1.96,1.27,3.09.84.98-.37,1.63-1.29,2.15-2.16,1.2-2.05,2.34-4.11,3.53-6.17.78-1.34,1.55-2.7,2.33-4.04.86-1.48,1.71-2.96,2.56-4.43.88-1.51,1.75-3.03,2.62-4.54.84-1.45,1.68-2.9,2.51-4.35.75-1.3,1.5-2.58,2.25-3.88.6-1.04,1.2-2.09,1.81-3.13.4-.69.8-1.39,1.2-2.08.15-.25.3-.51.44-.76,1.15-1.99-.28-4.47-2.58-4.47Zm-19.76,32.45l-15.65-27.09h31.29l-15.64,27.09Z"/>
        <path class="cls-4" d="m83.33,129.64h-11.56c-8.94,0-17.87.01-26.8-.02-.39,0-.78,0-1.16.03-.28.02-.57.07-.84.14-1.84.49-2.7,2.67-1.75,4.32.15.26.3.52.45.77.36.62.72,1.25,1.08,1.87.53.93,1.06,1.84,1.59,2.76.66,1.14,1.32,2.28,1.98,3.43.75,1.29,1.49,2.58,2.24,3.88.8,1.37,1.59,2.74,2.37,4.11.8,1.38,1.59,2.75,2.39,4.13.2.41.46.81.7,1.21,1.97,3.42,3.97,6.82,5.87,10.29.44.8.88,1.61,1.53,2.26.83.83,1.96,1.27,3.09.84.98-.37,1.63-1.29,2.15-2.16,1.2-2.05,2.34-4.11,3.53-6.17.78-1.34,1.55-2.7,2.33-4.04.86-1.48,1.71-2.96,2.56-4.43.88-1.51,1.75-3.03,2.62-4.54.84-1.45,1.68-2.9,2.51-4.35.75-1.3,1.5-2.58,2.25-3.88.6-1.04,1.2-2.09,1.81-3.13.4-.69.8-1.39,1.2-2.08.15-.25.3-.51.44-.76,1.15-1.99-.28-4.47-2.58-4.47Zm-19.76,32.45l-15.65-27.09h31.29l-15.64,27.09Z"/>
      </g>
    </g>
  </g>
</svg>